<?xml version="1.0" encoding="UTF-8" standalone="no"?>
<!-- Created with Inkscape (http://www.inkscape.org/) -->
<svg
   xmlns:dc="http://purl.org/dc/elements/1.1/"
   xmlns:cc="http://creativecommons.org/ns#"
   xmlns:rdf="http://www.w3.org/1999/02/22-rdf-syntax-ns#"
   xmlns:svg="http://www.w3.org/2000/svg"
   xmlns="http://www.w3.org/2000/svg"
   xmlns:sodipodi="http://sodipodi.sourceforge.net/DTD/sodipodi-0.dtd"
   xmlns:inkscape="http://www.inkscape.org/namespaces/inkscape"
   width="330"
   height="330"
   id="svg2"
   sodipodi:version="0.32"
   inkscape:version="0.46"
   version="1.0"
   sodipodi:docname="poofs.svg"
   inkscape:output_extension="org.inkscape.output.svg.inkscape">
  <defs
     id="defs4">
    <inkscape:perspective
       sodipodi:type="inkscape:persp3d"
       inkscape:vp_x="0 : 526.18109 : 1"
       inkscape:vp_y="0 : 1000 : 0"
       inkscape:vp_z="744.09448 : 526.18109 : 1"
       inkscape:persp3d-origin="372.04724 : 350.78739 : 1"
       id="perspective10" />
  </defs>
  <sodipodi:namedview
     id="base"
     pagecolor="#ffffff"
     bordercolor="#666666"
     borderopacity="1.0"
     gridtolerance="10000"
     guidetolerance="10"
     objecttolerance="10"
     inkscape:pageopacity="0.0"
     inkscape:pageshadow="2"
     inkscape:zoom="0.75602254"
     inkscape:cx="325.61191"
     inkscape:cy="17.245726"
     inkscape:document-units="px"
     inkscape:current-layer="layer1"
     showgrid="false"
     inkscape:window-width="640"
     inkscape:window-height="654"
     inkscape:window-x="0"
     inkscape:window-y="0" />
  <metadata
     id="metadata7">
    <rdf:RDF>
      <cc:Work
         rdf:about="">
        <dc:format>image/svg+xml</dc:format>
        <dc:type
           rdf:resource="http://purl.org/dc/dcmitype/StillImage" />
      </cc:Work>
    </rdf:RDF>
  </metadata>
  <g
     inkscape:label="Layer 1"
     inkscape:groupmode="layer"
     id="layer1">
    <g
       id="g2403">
      <path
         id="path2383"
         d="M 138.7453,41.613162 C 133.38159,30.687218 114.63975,27.744348 103.15096,21.999952 C 92.356951,16.602947 78.25709,18.563628 71.18869,25.632028 C 66.313134,30.507584 75.56309,45.6164 63.198123,39.433917 C 46.26498,30.967345 39.385303,42.243139 32.688684,53.962221 C 27.873057,62.389568 40.831663,82.749649 43.584913,91.009396 C 49.090756,107.52693 52.810788,115.92504 39.226421,129.5094 C 25.19762,143.5382 16.890163,164.19068 13.075474,183.26413 C 8.7891639,204.69568 14.780539,221.84821 36.32076,229.02829 C 39.569388,230.11116 43.100636,229.99684 46.490573,230.48112 C 61.491095,232.62405 71.29436,229.54336 61.745293,248.6415 C 54.478011,263.17606 55.822779,302.28503 67.556614,314.01887 C 81.343018,327.80527 116.62303,328.87699 130.02832,315.4717 C 142.61114,302.88888 154.81568,300.80953 166.34908,283.50943 C 174.78719,270.85227 190.88766,270.84128 198.31135,285.68867 C 205.53876,300.14348 234.36326,311.83962 249.16042,311.83962 C 272.14566,311.83962 277.49061,300.91652 277.49061,279.87735 C 277.49061,263.55346 256.62062,246.85436 249.88683,233.38678 C 241.20211,216.01733 273.61245,207.05719 284.02835,199.24526 C 298.67781,188.25817 309.80075,185.76058 302.91514,165.10375 C 299.081,153.60132 282.66576,148.37364 282.57552,148.3962 C 276.91816,149.81054 291.52752,140.89702 295.65099,136.77355 C 314.72063,117.70392 319.63469,97.595108 313.08495,71.396186 C 308.0644,51.313947 284.57408,29.626941 263.68872,37.981086 C 261.26734,38.94964 258.84595,39.918193 256.42457,40.886747 C 246.72887,44.765027 234.34786,58.994494 224.4623,65.584864 C 200.06535,81.849496 212.49668,91.584549 191.77362,60.499958 C 182.12708,46.030152 186.58537,45.971653 171.43399,45.971653 C 165.18248,45.971653 156.52822,47.337246 150.36795,48.877314 C 144.78322,50.273497 135.42188,50.747913 140.19814,45.971653 C 141.28101,44.888778 139.22958,43.065993 138.7453,41.613162 z"
         style="fill:#ffffff;fill-rule:evenodd;stroke:#000000;stroke-width:1px;stroke-linecap:butt;stroke-linejoin:miter;stroke-opacity:1" />
      <path
         id="path2385"
         d="M 108.23587,109.89619 C 109.53778,108.59428 94.416466,116.45144 83.537749,127.33016 C 76.390335,134.47757 96.339943,135.54729 100.2453,137.49997 C 103.98651,139.37058 107.90428,138.9528 111.86794,138.9528"
         style="fill:none;fill-rule:evenodd;stroke:#000000;stroke-width:1px;stroke-linecap:butt;stroke-linejoin:miter;stroke-opacity:1" />
      <path
         id="path2387"
         d="M 88.622655,211.59432 C 92.04701,213.3065 84.449141,218.70048 84.990579,222.49055 C 85.410422,225.42944 104.80226,231.75796 107.50945,232.66036 C 118.24733,236.23966 128.87362,241.1464 140.92455,243.55659 C 146.64277,244.70023 145.57018,244.42657 149.64153,246.46225"
         style="fill:none;fill-rule:evenodd;stroke:#000000;stroke-width:1px;stroke-linecap:butt;stroke-linejoin:miter;stroke-opacity:1" />
      <path
         id="path2389"
         d="M 197.58494,210.86791 C 202.30243,211.8114 204.14648,194.83916 206.30192,190.52828 C 208.58122,185.96967 203.61007,176.85522 202.66984,173.09431"
         style="fill:none;fill-rule:evenodd;stroke:#000000;stroke-width:1px;stroke-linecap:butt;stroke-linejoin:miter;stroke-opacity:1" />
      <path
         id="path2391"
         d="M 177.24531,96.820718 C 177.56469,96.181957 188.74877,80.557718 200.4906,84.471659 C 211.48572,88.1367 224.63553,86.270961 230.27362,97.547133 C 231.27198,99.543858 233.17928,100.93707 234.63211,102.63204"
         style="fill:none;fill-rule:evenodd;stroke:#000000;stroke-width:1px;stroke-linecap:butt;stroke-linejoin:miter;stroke-opacity:1" />
      <path
         id="path2393"
         d="M 223.00947,33.622595 C 224.27231,36.148274 227.74794,30.526943 230.27362,29.264104"
         style="fill:none;fill-rule:evenodd;stroke:#000000;stroke-width:1px;stroke-linecap:butt;stroke-linejoin:miter;stroke-opacity:1" />
      <path
         id="path2395"
         d="M 121.31134,14.009384 C 123.49059,18.367875 112.59436,9.650893 108.23587,7.4716473 C 105.90328,6.3053543 103.3931,5.5345401 100.97171,4.5659865 C 99.761022,4.0817097 98.55033,3.5974329 97.339638,3.1131561 C 96.215539,2.6635163 94.918254,3.1131561 93.707562,3.1131561"
         style="fill:none;fill-rule:evenodd;stroke:#000000;stroke-width:1px;stroke-linecap:butt;stroke-linejoin:miter;stroke-opacity:1" />
      <path
         id="path2397"
         d="M 19.45283,84.282981 C 14.610062,82.345874 15.974095,94.14611 13.641509,98.81129 C 13.058362,99.97758 12.672955,101.23267 12.188678,102.44336 C 9.9112055,108.13704 18.805705,115.59812 21.632076,118.4245 C 22.24941,119.04183 22.60063,119.87733 23.084907,120.60374"
         style="fill:none;fill-rule:evenodd;stroke:#000000;stroke-width:1px;stroke-linecap:butt;stroke-linejoin:miter;stroke-opacity:1" />
      <path
         id="path2399"
         d="M 25.424532,276.97169 C 32.434064,283.98122 30.855611,295.30516 39.226421,299.49056"
         style="fill:none;fill-rule:evenodd;stroke:#000000;stroke-width:1px;stroke-linecap:butt;stroke-linejoin:miter;stroke-opacity:1" />
      <path
         id="path2401"
         d="M 308.00005,274.06603 C 308.60283,274.66881 307.75938,256.87715 306.54722,254.45282"
         style="fill:none;fill-rule:evenodd;stroke:#000000;stroke-width:1px;stroke-linecap:butt;stroke-linejoin:miter;stroke-opacity:1" />
    </g>
    <path
       id="path2417"
       d="M 220.65983,458.94462 C 223.83645,450.96943 216.26342,438.78644 213.70938,429.56425 C 211.30979,420.89977 203.40005,413.59252 196.20978,412.63815 C 191.25017,411.97985 187.75051,424.07156 185.0017,414.14605 C 157.65098,377.70602 153.56394,441.11595 125.58453,440.33407 C 111.31384,438.4399 96.320824,442.81335 84.353878,449.0904 C 70.907425,456.1435 64.736839,467.25446 71.42794,482.94703 C 72.43708,485.31372 74.218391,487.31148 75.613608,489.49371 C 81.787482,499.15011 88.197106,503.46615 73.422795,506.4274 C 62.178869,508.68105 42.108095,526.86972 41.60739,538.90015 C 41.019114,553.03501 57.642584,573.97968 71.279011,575.78966 C 84.078788,577.48859 91.127839,583.64344 105.91621,582.63376 C 116.73572,581.89505 124.58707,591.23081 120.33605,602.14664 C 116.19744,612.77385 124.04475,634.7026 131.25519,643.28714 C 142.45556,656.62197 150.84885,654.86066 161.9987,645.49552 C 170.64965,638.2293 169.32981,618.68838 173.18577,608.78699 C 178.15888,596.01694 198.70046,610.83131 207.91595,613.39676 C 220.8771,617.00495 227.62077,622.34615 235.21274,609.15653 C 239.44021,601.81212 234.21174,589.96186 234.15581,589.91955 C 230.64953,587.267 242.49223,591.77494 246.6868,592.33168 C 266.08524,594.90646 279.13658,588.80634 289.82929,573.34464 C 298.02556,561.49281 298.07225,538.21145 283.46778,529.81352 C 281.77458,528.8399 280.08139,527.86626 278.38819,526.89264 C 271.60829,522.99403 258.03421,522.14515 249.72451,519.34363 C 229.21668,512.42964 230.11513,523.97499 236.49057,498.11593 C 239.45833,486.07859 241.66179,488.63902 234.27874,479.84897 C 231.23248,476.22217 226.29166,471.80929 222.4737,468.92095 C 219.01241,466.30247 214.19935,461.08267 219.05797,461.72756 C 220.15951,461.87378 220.12587,459.87227 220.65983,458.94462 z"
       style="fill:#ffffff;fill-rule:evenodd;stroke:#000000;stroke-width:0.7241255px;stroke-linecap:butt;stroke-linejoin:miter;stroke-opacity:1"
       sodipodi:nodetypes="cssccsssssssssssssssssssssssc" />
    <path
       id="path2421"
       d="M 94.786492,534.16848 C 98.210847,535.88066 90.612978,541.27464 91.154416,545.06471 C 91.574259,548.0036 110.9661,554.33212 113.67329,555.23452 C 124.41117,558.81382 135.03746,563.72056 147.08839,566.13075 C 152.80661,567.27439 151.73402,567.00073 155.80537,569.03641"
       style="fill:none;fill-rule:evenodd;stroke:#000000;stroke-width:1px;stroke-linecap:butt;stroke-linejoin:miter;stroke-opacity:1" />
    <path
       id="path2423"
       d="M 177.03882,543.71513 C 181.75631,544.65862 183.60036,527.68638 185.7558,523.3755 C 188.0351,518.81689 183.06395,509.70244 182.12372,505.94153"
       style="fill:none;fill-rule:evenodd;stroke:#000000;stroke-width:1px;stroke-linecap:butt;stroke-linejoin:miter;stroke-opacity:1" />
    <path
       id="path2425"
       d="M 144.37151,485.14247 C 144.69089,484.50371 155.87497,468.87947 167.6168,472.79341 C 178.61192,476.45845 191.76173,474.59271 197.39982,485.86888 C 198.39818,487.86561 200.30548,489.25882 201.75831,490.95379"
       style="fill:none;fill-rule:evenodd;stroke:#000000;stroke-width:1px;stroke-linecap:butt;stroke-linejoin:miter;stroke-opacity:1" />
    <path
       id="path2429"
       d="M 129.52979,419.32633 C 131.70904,422.13491 120.81281,421.16748 116.45432,422.08807 C 114.12173,422.58074 111.61155,423.59521 109.19016,424.34879 C 107.97947,424.72557 106.76878,425.10235 105.55809,425.47915 C 104.43399,425.82898 103.1367,427.20127 101.92601,428.06233"
       style="fill:none;fill-rule:evenodd;stroke:#000000;stroke-width:1px;stroke-linecap:butt;stroke-linejoin:miter;stroke-opacity:1" />
    <path
       id="path2431"
       d="M 52.32663,454.11322 C 47.483862,452.17611 48.847895,463.97635 46.515309,468.64153 C 45.932162,469.80782 45.546755,471.06291 45.062478,472.2736 C 42.785005,477.96728 51.679505,485.42836 54.505876,488.25474 C 55.12321,488.87207 55.47443,489.70757 55.958707,490.43398"
       style="fill:none;fill-rule:evenodd;stroke:#000000;stroke-width:1px;stroke-linecap:butt;stroke-linejoin:miter;stroke-opacity:1" />
    <path
       id="path2433"
       d="M 183.62969,632.41965 C 190.63922,639.42918 189.06077,650.75312 197.43158,654.93852"
       style="fill:none;fill-rule:evenodd;stroke:#000000;stroke-width:1px;stroke-linecap:butt;stroke-linejoin:miter;stroke-opacity:1" />
    <path
       id="path2447"
       d="M 509.79668,33.857589 C 495.52599,31.963419 480.53298,36.336869 468.56603,42.613919 C 455.11958,49.667019 448.94899,60.777979 455.64009,76.470549 C 469.9487,109.26329 388.61619,143.97503 455.49116,169.31318 C 474.81112,176.24228 509.37484,169.74491 504.5482,195.67016 C 500.40959,206.29737 508.2569,228.22612 515.46734,236.81066 C 568.25352,259.52873 534.72372,183.77645 592.1281,206.92028 C 693.10627,220.03354 610.04941,171.39127 583.7197,118.34941 C 556.9089,48.065009 561.68828,18.893922 509.79668,33.857589 z"
       style="fill:#ffffff;fill-rule:evenodd;stroke:#000000;stroke-width:0.7241255px;stroke-linecap:butt;stroke-linejoin:miter;stroke-opacity:1"
       sodipodi:nodetypes="csccccccc" />
    <path
       id="path2449"
       d="M 478.99865,127.692 C 482.423,129.40418 474.82513,134.79816 475.36657,138.58823 C 475.78641,141.52712 495.17825,147.85564 497.88544,148.75804 C 508.62332,152.33734 519.24961,157.24408 531.30054,159.65427 C 537.01876,160.79791 535.94617,160.52425 540.01752,162.55993"
       style="fill:none;fill-rule:evenodd;stroke:#000000;stroke-width:1px;stroke-linecap:butt;stroke-linejoin:miter;stroke-opacity:1" />
    <path
       id="path2451"
       d="M 561.25097,137.23865 C 565.96846,138.18214 567.81251,121.2099 569.96795,116.89902 C 572.24725,112.34041 567.2761,103.22596 566.33587,99.465049"
       style="fill:none;fill-rule:evenodd;stroke:#000000;stroke-width:1px;stroke-linecap:butt;stroke-linejoin:miter;stroke-opacity:1" />
    <path
       id="path2457"
       d="M 436.53878,47.636739 C 431.69602,45.699629 433.06005,57.499869 430.72746,62.165049 C 430.14432,63.331339 429.75891,64.586429 429.27463,65.797119 C 426.99716,71.490799 435.89166,78.951879 438.71803,81.778259 C 439.33536,82.395589 439.68658,83.231089 440.17086,83.957499"
       style="fill:none;fill-rule:evenodd;stroke:#000000;stroke-width:1px;stroke-linecap:butt;stroke-linejoin:miter;stroke-opacity:1" />
    <path
       id="path2459"
       d="M 567.84184,225.94317 C 574.85137,232.9527 573.27292,244.27664 581.64373,248.46204"
       style="fill:none;fill-rule:evenodd;stroke:#000000;stroke-width:1px;stroke-linecap:butt;stroke-linejoin:miter;stroke-opacity:1" />
    <path
       style="fill:#ffffff;fill-rule:evenodd;stroke:#000000;stroke-width:1px;stroke-linecap:butt;stroke-linejoin:miter;stroke-opacity:1"
       d="M 528.10595,471.50812 C 534.56873,477.9709 506.70982,481.35618 532.21517,494.10886 C 548.34873,502.17564 521.2239,478.29016 538.37901,512.60037 C 541.65843,519.1592 583.52907,522.82201 554.81591,494.10886 C 551.11246,490.40541 587.92453,485.94912 554.81591,477.67196 C 545.51348,475.34635 563.27867,474.05136 554.81591,457.12584 C 547.21496,441.92394 518.96236,436.98837 523.99672,457.12584 C 529.19497,477.91882 509.49131,424.97153 528.10595,471.50812 z"
       id="path2463" />
    <path
       style="fill:#ffffff;fill-rule:evenodd;stroke:#000000;stroke-width:1px;stroke-linecap:butt;stroke-linejoin:miter;stroke-opacity:1"
       d="M 486.94316,465.60442 C 489.70096,476.63564 520.89793,488.96159 503.38006,465.60442 C 495.49275,455.08802 498.84963,450.72133 486.94316,465.60442 z"
       id="path2465" />
    <path
       style="fill:#ffffff;fill-rule:evenodd;stroke:#000000;stroke-width:1px;stroke-linecap:butt;stroke-linejoin:miter;stroke-opacity:1"
       d="M 546.52692,430.67601 C 539.74981,421.63987 571.41382,446.88136 579.40072,438.89446 C 582.74308,435.5521 566.31098,410.89195 546.52692,430.67601 z"
       id="path2467" />
    <path
       style="fill:#ffffff;fill-rule:evenodd;stroke:#000000;stroke-width:1px;stroke-linecap:butt;stroke-linejoin:miter;stroke-opacity:1"
       d="M 581.45533,506.69667 C 582.21553,505.93647 550.83142,518.65715 573.23688,535.46125 C 588.10388,546.6115 588.43413,538.72109 585.56456,527.2428 C 583.87061,520.46699 583.14928,513.47248 581.45533,506.69667 z"
       id="path2469" />
    <path
       style="fill:none;fill-rule:evenodd;stroke:#000000;stroke-width:1px;stroke-linecap:butt;stroke-linejoin:miter;stroke-opacity:1"
       d="M 515.70773,504.64206 C 514.49889,499.80668 530.09002,541.09047 530.09002,508.75129 C 530.09002,507.21987 528.72028,506.0118 528.03541,504.64206"
       id="path2471" />
  </g>
</svg>
